# xmcd CD database file
#
# Track frame offsets:
#	150
#	2792
#	19880
#	38005
#	55745
#	73862
#	92257
#	94177
#	113315
#	131100
#	147217
#	164537
#	181995
#	188010
#	208647
#	229797
#	232455
#	258377
#
# Disc length: 3823 seconds
#
# Revision: 5
# Processed by: cddbd v1.5.2PL0 Copyright (c) Steve Scherf et al.
# Submitted via: CDex 1.51
#
DISCID=f40eed12
DTITLE=Angie Stone - Stone Love
DYEAR=2004
DGENRE=R&B
TTITLE0=Stoned Love (Intro)
TTITLE1=I Wanna Thank Ya
TTITLE2=My Man
TTITLE3=U-Haul
TTITLE4=Stay For A While
TTITLE5=Lovers' Ghetto
TTITLE6=Little Bit Of This, Little Bit Of That (Interlude)
TTITLE7=You're Gonna Get It
TTITLE8=Come Home (Live With Me)
TTITLE9=You Don't Love Me
TTITLE10=Remy Red
TTITLE11=That Kind Of Love
TTITLE12=Touch It (Interlude)
TTITLE13=Cinderella Ballin'
TTITLE14=Karma
TTITLE15=Wherever You Are (Outro)
TTITLE16=I Wanna Thank Ya (No Rap)
TTITLE17=DATA
EXTD=YEAR: 2004
EXTT0=
EXTT1=
EXTT2=
EXTT3=
EXTT4=
EXTT5=
EXTT6=
EXTT7=
EXTT8=
EXTT9=
EXTT10=
EXTT11=
EXTT12=
EXTT13=
EXTT14=
EXTT15=
EXTT16=
EXTT17=
PLAYORDER=
